<?xml version="1.0" encoding="UTF-8"?><svg xmlns="http://www.w3.org/2000/svg" viewBox="0 0 362.31 111.21"><defs><style>.d,.e{fill:#fff;}.e{opacity:.5;}</style></defs><g id="a"/><g id="b"><g id="c"><g><g><path class="d" d="M0,56.97H22.82v9.63h-5.62v34.03h5.62v9.63H0v-9.63H5.52v-34.03H0v-9.63Z"/><path class="d" d="M40.22,73.84h7.28v9.21h-7.35l-.07,15.4c0,.89,.07,1.61,.21,2.16,.14,.55,.35,.99,.62,1.32,.27,.33,.59,.55,.97,.67,.37,.12,.81,.18,1.3,.18,.89,0,1.68-.09,2.36-.26,.68-.18,1.36-.38,2.04-.62l1.51,6.79c-1.2,.75-2.53,1.35-3.99,1.79-1.46,.45-3.21,.67-5.22,.67-1.43,0-2.79-.25-4.1-.74s-2.44-1.24-3.43-2.23c-.98-1-1.77-2.24-2.36-3.74-.59-1.5-.87-3.25-.84-5.24l.11-16.14h-5.24v-9.21h5.27l.07-8.72,10.93-5.2-.07,13.92Z"/><path class="d" d="M75.06,108.3c-.82,.52-1.57,.96-2.25,1.32-.68,.36-1.36,.66-2.04,.88-.68,.22-1.38,.39-2.11,.49-.73,.11-1.52,.16-2.39,.16-2.18,0-4.13-.3-5.85-.9s-3.18-1.42-4.36-2.46c-1.18-1.04-2.09-2.27-2.72-3.69-.63-1.42-.95-2.96-.95-4.62s.32-3.25,.97-4.68c.64-1.43,1.58-2.65,2.79-3.67,1.22-1.02,2.71-1.82,4.48-2.39,1.77-.57,3.79-.86,6.06-.86,1.66,0,3.18,.09,4.55,.26s2.64,.39,3.81,.65v-1.12c0-.91-.18-1.71-.53-2.37s-.84-1.22-1.48-1.65c-.63-.43-1.39-.75-2.29-.95-.89-.2-1.86-.3-2.92-.3-2.2,0-4.14,.22-5.82,.65-1.68,.43-3.29,1.06-4.83,1.88l-3.38-6.82c2.39-1.64,4.89-2.89,7.51-3.76,2.61-.87,5.38-1.3,8.31-1.3,2.27,0,4.38,.25,6.31,.76,1.93,.5,3.59,1.32,4.97,2.46,1.38,1.14,2.47,2.62,3.25,4.45,.79,1.83,1.18,4.06,1.18,6.68v13.25h4.89v9.63h-15.19v-1.97Zm-8.02-5.45c1.66,0,3.18-.27,4.54-.81,1.36-.54,2.52-1.2,3.48-1.97v-4.64h-8.44c-.54,0-1.07,.08-1.58,.25-.52,.16-.98,.4-1.39,.7-.41,.3-.74,.68-.98,1.12-.25,.45-.37,.96-.37,1.55,0,1.08,.39,1.98,1.18,2.71,.79,.73,1.97,1.09,3.57,1.09Z"/><path class="d" d="M94.83,55.56h16.42v45.07h5.62v9.63h-22.04v-9.63h5.62v-35.44h-5.62v-9.63Z"/><path class="e" d="M147.75,86.43c-1.01-1.27-2.13-2.22-3.38-2.87-1.24-.64-2.71-.92-4.39-.83-1.36-.09-2.6,.09-3.71,.56-1.11,.47-2.07,1.12-2.88,1.97s-1.44,1.85-1.88,3.01c-.45,1.16-.67,2.47-.67,3.92,0,1.29,.23,2.51,.7,3.66,.47,1.15,1.11,2.14,1.92,2.97,.81,.83,1.77,1.48,2.88,1.95,1.11,.47,2.33,.75,3.64,.84,1.1-.09,2.1-.32,3.01-.69,.9-.36,1.71-.83,2.41-1.41,.7-.57,1.31-1.22,1.81-1.93,.5-.71,.9-1.39,1.18-2.02l9.67,2.67c-.4,1.41-1.08,2.87-2.06,4.39-.97,1.52-2.24,2.91-3.8,4.17-1.56,1.25-3.41,2.29-5.55,3.11s-4.59,1.23-7.33,1.23-5.36-.51-7.7-1.53c-2.34-1.02-4.36-2.41-6.05-4.17s-3.01-3.82-3.96-6.19c-.95-2.37-1.42-4.91-1.42-7.63s.49-5.2,1.46-7.51c.97-2.31,2.31-4.32,4.03-6.05,1.71-1.72,3.74-3.06,6.1-4.03,2.36-.96,4.92-1.39,7.68-1.3,1.97-.09,3.88,.13,5.73,.67,1.85,.54,3.61,1.35,5.27,2.43h7v10.58h-9.7Z"/><path class="e" d="M194.93,87.1h-9.88v-3.76c-.96,0-1.84,.06-2.64,.19-.8,.13-1.49,.35-2.09,.65-.6,.3-1.1,.73-1.51,1.27-.41,.54-.7,1.21-.86,2v13.18h7.42v9.63h-23.77v-9.63h5.45v-17.16h-5.38v-9.63h16.21v2.57c1.03-.82,2.19-1.45,3.48-1.9,1.29-.44,2.69-.67,4.22-.67s3.14,.01,4.78,.04c1.64,.02,3.16,.04,4.57,.04v13.18Z"/><path class="e" d="M209.03,94.34l.11,1.09c.26,1.05,.7,1.98,1.32,2.78,.62,.8,1.35,1.46,2.2,2,.84,.54,1.78,.94,2.81,1.21,1.03,.27,2.07,.4,3.13,.4s2.06-.06,3.01-.19c.95-.13,1.87-.3,2.76-.53,.89-.22,1.76-.48,2.6-.77,.84-.29,1.7-.6,2.57-.93l3.87,7.21c-1.34,.82-2.56,1.52-3.67,2.09-1.11,.58-2.23,1.05-3.36,1.42-1.12,.38-2.32,.65-3.59,.83s-2.74,.26-4.43,.26c-3.16,0-5.98-.52-8.44-1.56-2.46-1.04-4.53-2.46-6.21-4.24-1.68-1.78-2.95-3.87-3.83-6.26s-1.32-4.92-1.32-7.59,.46-5.18,1.39-7.52c.93-2.34,2.23-4.39,3.92-6.13,1.69-1.75,3.7-3.12,6.05-4.13,2.34-1.01,4.94-1.51,7.8-1.51s5.4,.47,7.61,1.42,4.08,2.26,5.61,3.94c1.52,1.68,2.69,3.64,3.52,5.91,.82,2.26,1.27,4.69,1.34,7.29,.07,.59,.11,1.17,.12,1.74,.01,.58,0,1.17-.05,1.78h-26.82Zm8.4-13.29c-1.31,0-2.43,.16-3.36,.47-.93,.32-1.71,.75-2.34,1.3-.63,.55-1.14,1.18-1.51,1.88-.38,.7-.67,1.44-.88,2.21h15.22c-.16-.8-.4-1.55-.7-2.25-.3-.7-.73-1.32-1.27-1.86-.54-.54-1.23-.97-2.06-1.28-.83-.32-1.87-.47-3.11-.47Z"/><path class="e" d="M261.55,55.56h15.93v45.07h7.1v9.63h-17.93v-1.41c-1.27,.66-2.56,1.17-3.88,1.55-1.32,.38-2.67,.56-4.03,.56-2.79,0-5.35-.5-7.68-1.49-2.33-1-4.34-2.36-6.01-4.1-1.68-1.73-2.98-3.77-3.92-6.1-.94-2.33-1.41-4.83-1.41-7.51s.46-5.16,1.39-7.47c.93-2.31,2.21-4.32,3.87-6.03,1.65-1.71,3.63-3.06,5.94-4.04,2.31-.98,4.85-1.48,7.61-1.48,1.52,0,2.95,.15,4.29,.44,1.34,.29,2.61,.71,3.83,1.25v-9.25h-5.1v-9.63Zm-2.21,45.7c1.55-.05,2.95-.44,4.2-1.2,1.25-.75,2.29-1.73,3.11-2.95v-10.72c-.82-1.24-1.88-2.21-3.18-2.9-1.3-.69-2.68-1.02-4.13-1-1.22-.02-2.36,.19-3.43,.63-1.07,.45-2,1.08-2.81,1.9-.81,.82-1.45,1.81-1.92,2.95-.47,1.15-.7,2.45-.7,3.9s.23,2.72,.7,3.88c.47,1.16,1.11,2.14,1.92,2.95s1.75,1.42,2.81,1.85c1.07,.42,2.21,.66,3.43,.7Z"/><path class="e" d="M288.4,73.84h16.35v26.79h5.06v9.63h-21.41v-9.63h5.48v-17.16h-5.48v-9.63Zm4.92-11.74c0-.87,.16-1.68,.47-2.44,.32-.76,.76-1.42,1.32-1.99s1.22-1.01,1.99-1.34c.76-.33,1.59-.49,2.48-.49,.84,0,1.64,.16,2.39,.49,.75,.33,1.41,.77,1.97,1.34s1.01,1.23,1.34,1.99c.33,.76,.49,1.58,.49,2.44s-.16,1.68-.49,2.44c-.33,.76-.77,1.42-1.34,1.99s-1.22,1.01-1.97,1.34c-.75,.33-1.55,.49-2.39,.49-.89,0-1.72-.16-2.48-.49-.76-.33-1.42-.77-1.99-1.34s-1-1.22-1.32-1.99c-.32-.76-.47-1.58-.47-2.44Z"/><path class="e" d="M327.82,73.84h7.28v9.21h-7.35l-.07,15.4c0,.89,.07,1.61,.21,2.16,.14,.55,.35,.99,.62,1.32,.27,.33,.59,.55,.97,.67,.37,.12,.81,.18,1.3,.18,.89,0,1.68-.09,2.36-.26,.68-.18,1.36-.38,2.04-.62l1.51,6.79c-1.2,.75-2.53,1.35-3.99,1.79-1.46,.45-3.21,.67-5.22,.67-1.43,0-2.79-.25-4.1-.74s-2.44-1.24-3.43-2.23c-.98-1-1.77-2.24-2.36-3.74-.59-1.5-.87-3.25-.84-5.24l.11-16.14h-5.24v-9.21h5.27l.07-8.72,10.93-5.2-.07,13.92Z"/><path class="e" d="M340.9,73.84h16.35v26.79h5.06v9.63h-21.41v-9.63h5.48v-17.16h-5.48v-9.63Zm4.92-11.74c0-.87,.16-1.68,.47-2.44,.32-.76,.76-1.42,1.32-1.99s1.22-1.01,1.99-1.34c.76-.33,1.59-.49,2.48-.49,.84,0,1.64,.16,2.39,.49,.75,.33,1.41,.77,1.97,1.34s1.01,1.23,1.34,1.99c.33,.76,.49,1.58,.49,2.44s-.16,1.68-.49,2.44c-.33,.76-.77,1.42-1.34,1.99s-1.22,1.01-1.97,1.34c-.75,.33-1.55,.49-2.39,.49-.89,0-1.72-.16-2.48-.49-.76-.33-1.42-.77-1.99-1.34s-1-1.22-1.32-1.99c-.32-.76-.47-1.58-.47-2.44Z"/></g><g><path class="d" d="M186.46,15.91l-5.31-5.3L170.54,0l-27.75,27.75,27.75,27.76,10.61-10.61-5.3-5.3-5.31,5.3-17.14-17.15,17.14-17.14,5.3,5.3,5.31,5.3,6.54,6.54-6.54,6.54,5.31,5.31,11.84-11.85-11.84-11.84Z"/><polygon class="e" points="219.51 27.75 191.76 55.51 181.15 44.9 164 27.75 175.84 15.91 181.15 21.21 174.61 27.75 186.46 39.6 191.76 44.9 208.9 27.75 191.76 10.61 186.46 15.91 181.15 10.61 191.76 0 219.51 27.75"/></g></g></g></g></svg>