<?xml version="1.0" encoding="UTF-8"?><svg xmlns="http://www.w3.org/2000/svg" viewBox="0 0 76.72 55.51"><defs><style>.d,.e{fill:#fff;}.e{opacity:.5;}</style></defs><g id="a"/><g id="b"><g id="c"><g><path class="d" d="M43.67,15.91l-5.31-5.3L27.75,0,0,27.75l27.75,27.76,10.61-10.61-5.3-5.3-5.31,5.3L10.61,27.75,27.75,10.61l5.3,5.3,5.31,5.3,6.54,6.54-6.54,6.54,5.31,5.31,11.84-11.85-11.84-11.84Z"/><polygon class="e" points="76.72 27.75 48.97 55.51 38.36 44.9 21.21 27.75 33.05 15.91 38.36 21.21 31.82 27.75 43.67 39.6 48.97 44.9 66.11 27.75 48.97 10.61 43.67 15.91 38.36 10.61 48.97 0 76.72 27.75"/></g></g></g></svg>