<?xml version="1.0" standalone="no"?>
<!DOCTYPE svg PUBLIC "-//W3C//DTD SVG 20010904//EN"
 "http://www.w3.org/TR/2001/REC-SVG-20010904/DTD/svg10.dtd">
<svg version="1.0" xmlns="http://www.w3.org/2000/svg"
 width="180.000000pt" height="180.000000pt" viewBox="0 0 180.000000 180.000000"
 preserveAspectRatio="xMidYMid meet">
<metadata>
Created by potrace 1.14, written by Peter Selinger 2001-2017
</metadata>
<g transform="translate(0.000000,180.000000) scale(0.100000,-0.100000)"
fill="#000000" stroke="none">
<path d="M379 1214 l-296 -296 282 -281 c155 -155 288 -288 297 -295 14 -11
31 2 127 99 124 124 111 121 179 47 19 -21 41 -38 48 -38 8 0 14 -4 14 -10 0
-5 20 -30 45 -55 38 -39 48 -44 65 -35 22 12 28 32 8 27 -15 -3 -23 32 -11 44
6 6 17 1 29 -13 l19 -23 -22 19 c-23 19 -23 19 -23 -1 0 -21 26 -27 48 -10 9
7 5 15 -20 33 -17 13 -27 24 -22 24 6 0 16 -6 23 -13 11 -10 13 -9 8 5 -4 12
1 21 13 28 14 7 20 7 20 0 0 -5 -6 -10 -13 -10 -7 0 -13 -9 -13 -20 0 -33 26
-23 82 34 55 55 63 68 42 63 -15 -3 -23 32 -11 44 6 6 17 1 29 -13 l19 -23
-22 19 c-23 19 -23 19 -23 -1 0 -21 26 -27 48 -10 9 7 5 15 -20 33 -17 13 -27
24 -22 24 6 0 16 -6 23 -13 11 -10 13 -9 8 5 -4 12 1 21 13 28 14 7 20 7 20 0
0 -5 -6 -10 -13 -10 -7 0 -13 -9 -13 -20 0 -30 25 -24 62 15 36 36 41 47 22
42 -15 -3 -23 32 -11 44 6 6 17 1 29 -13 l19 -23 -22 19 c-23 19 -23 19 -23
-1 0 -31 31 -23 74 18 34 32 37 38 26 58 -6 13 -9 25 -7 28 3 2 8 -5 12 -17 4
-12 12 -19 18 -17 16 5 21 28 6 25 -8 -2 -14 7 -16 22 -2 21 -1 22 5 5 9 -24
35 -30 51 -11 9 10 8 15 -2 19 -22 8 -14 52 9 50 13 -1 20 5 21 18 1 11 -2 17
-7 14 -15 -9 -22 14 -10 32 9 16 10 15 5 -5 -5 -16 -3 -22 7 -20 8 2 13 -6 13
-22 -1 -19 -6 -25 -21 -23 -14 1 -20 -4 -20 -17 0 -12 7 -20 16 -20 18 0 53
37 46 49 -3 4 1 16 8 27 14 18 11 48 -4 39 -4 -2 -16 2 -26 11 -18 14 -18 15
4 4 12 -6 22 -7 22 -3 0 4 5 2 10 -3 13 -13 22 -56 11 -49 -5 3 -11 -2 -15
-10 -8 -23 8 -18 32 10 23 27 29 40 12 30 -5 -3 -10 -1 -10 5 0 20 -28 40 -47
34 -13 -4 -14 -3 -5 4 10 7 8 16 -13 41 -15 17 -32 28 -37 25 -6 -4 -1 -12 13
-20 13 -7 20 -13 16 -14 -19 0 -46 21 -41 33 5 15 -30 60 -40 50 -3 -3 -6 0
-6 9 0 18 -44 61 -53 51 -4 -3 -7 1 -7 10 0 8 -12 25 -27 37 -21 16 -28 18
-36 8 -6 -9 -7 -8 -3 5 7 23 -19 51 -39 43 -8 -3 -15 -1 -15 4 0 6 5 10 11 10
6 0 3 7 -5 16 -10 10 -24 13 -38 9 -23 -7 -23 -7 -3 9 18 14 18 15 2 16 -10 0
-21 8 -24 18 -11 28 -30 42 -50 36 -14 -5 -15 -4 -4 4 11 8 7 17 -21 46 -33
34 -63 51 -39 23 23 -29 -21 -37 -54 -10 -12 10 -14 14 -5 10 9 -2 25 2 35 10
20 14 20 15 -4 34 -22 18 -24 18 -38 2 -9 -11 -12 -12 -7 -3 4 9 -2 6 -13 -5
-14 -13 -16 -22 -9 -27 6 -5 1 -8 -11 -8 -24 0 -30 -19 -12 -37 23 -23 -16
-39 -47 -20 -12 7 -71 -49 -61 -59 4 -4 9 1 13 10 3 9 11 16 16 16 6 0 5 -7
-2 -15 -12 -14 -9 -15 21 -10 21 3 29 2 21 -3 -8 -5 -31 -9 -53 -8 -23 1 -39
-2 -39 -9 0 -32 -46 -2 -145 96 l-110 109 -296 -296z m769 254 c-2 -6 -15 -13
-29 -15 -18 -2 -20 -1 -9 6 8 5 18 7 22 5 4 -3 8 0 8 5 0 6 3 11 6 11 3 0 4
-5 2 -12z m-46 -57 c-2 -9 3 -11 13 -7 11 4 14 2 9 -6 -5 -8 -1 -9 12 -4 14 5
16 4 8 -4 -15 -15 -58 5 -48 22 5 7 2 9 -9 5 -9 -3 -19 -2 -21 2 -3 5 5 8 17
7 13 -1 21 -7 19 -15z m108 -1 c0 -5 -5 -10 -11 -10 -5 0 -7 5 -4 10 3 6 8 10
11 10 2 0 4 -4 4 -10z m-129 -51 c-5 -13 -10 -19 -10 -12 -1 15 10 45 15 40 3
-2 0 -15 -5 -28z m143 19 c-3 -5 -13 -6 -23 -3 -12 3 -17 -1 -18 -15 -1 -11 4
-19 10 -17 7 1 12 -9 12 -23 0 -16 -5 -24 -14 -22 -9 2 -11 -3 -7 -13 3 -9 2
-13 -4 -10 -6 3 -10 1 -10 -6 0 -7 -3 -10 -6 -7 -9 10 16 49 27 43 5 -4 9 3 9
14 0 12 -6 20 -12 19 -7 -2 -13 6 -14 17 -1 29 3 33 31 33 13 0 22 -5 19 -10z
m-64 -6 c0 -5 -6 -16 -13 -27 -11 -14 -16 -15 -22 -5 -6 9 -4 11 5 5 10 -6 12
-4 7 9 -4 10 -3 15 3 11 6 -3 10 -1 10 4 0 6 2 11 5 11 3 0 5 -4 5 -8z m-150
-17 c0 -8 -2 -15 -4 -15 -2 0 -6 7 -10 15 -3 8 -1 15 4 15 6 0 10 -7 10 -15z
m40 -5 c0 -5 -4 -10 -10 -10 -5 0 -10 5 -10 10 0 6 5 10 10 10 6 0 10 -4 10
-10z m203 -3 c10 9 20 -25 13 -42 -6 -18 -32 -10 -41 13 -5 13 -2 13 15 -3 20
-18 20 -18 20 4 0 12 -4 20 -9 17 -4 -3 -17 1 -27 10 -18 14 -18 15 2 5 12 -6
24 -8 27 -4z m-133 -17 c19 -19 13 -26 -15 -20 -5 1 -18 4 -29 6 -34 6 -31 15
3 9 30 -5 33 -4 21 10 -18 22 -4 19 20 -5z m50 -7 c0 -5 -5 -15 -10 -23 -7
-12 -9 -10 -7 8 1 19 17 33 17 15z m-105 -43 c0 -19 -4 -24 -19 -22 -16 3 -18
1 -9 -10 8 -10 9 -18 1 -28 -8 -13 -9 -12 -5 2 3 9 -1 22 -8 28 -12 10 -13 25
-6 58 1 2 11 2 23 0 17 -2 23 -10 23 -28z m221 4 c-3 -15 -8 -29 -11 -32 -3
-3 -3 5 -1 19 2 13 5 27 5 32 1 4 3 7 6 7 3 0 3 -12 1 -26z m-316 6 c0 -5 -8
-10 -17 -10 -15 0 -16 2 -3 10 19 12 20 12 20 0z m30 2 c0 -5 -6 -16 -13 -27
-11 -14 -16 -15 -22 -5 -5 8 -4 11 3 6 6 -3 13 3 17 14 6 20 15 27 15 12z m87
-14 c-3 -8 -6 -5 -6 6 -1 11 2 17 5 13 3 -3 4 -12 1 -19z m50 6 c-3 -3 5 -17
19 -30 19 -20 28 -23 44 -14 27 14 25 23 -2 15 -20 -5 -21 -4 -5 5 24 16 39 4
25 -20 -7 -10 -16 -16 -20 -14 -16 10 -7 -10 14 -33 12 -13 28 -23 35 -23 8 0
11 -5 7 -12 -5 -8 -2 -9 10 -5 10 4 15 3 11 -3 -5 -9 94 -120 107 -120 4 0 8
6 11 13 2 6 3 4 1 -6 -1 -10 13 -35 32 -55 20 -20 34 -30 32 -22 -2 8 -7 19
-13 23 -6 5 -4 7 4 5 8 -2 16 -15 18 -29 2 -13 8 -26 14 -27 6 -3 5 -9 -2 -19
-10 -11 -10 -14 2 -11 8 2 18 8 22 13 5 6 7 4 5 -4 -2 -8 -14 -16 -27 -18 -12
-2 -30 -10 -38 -19 -14 -14 -14 -17 2 -32 17 -16 17 -16 12 0 -6 18 28 46 41
34 3 -3 0 -6 -7 -6 -7 0 -9 -4 -6 -10 3 -5 0 -7 -7 -5 -9 4 -14 -2 -14 -15 0
-26 28 -22 38 5 6 17 7 17 5 -4 -3 -31 -35 -37 -62 -11 -17 15 -23 16 -37 6
-10 -7 -19 -24 -21 -36 -2 -13 -10 -26 -18 -28 -8 -2 -10 0 -4 5 6 4 11 15 13
23 2 8 -8 2 -22 -13 -14 -16 -26 -33 -26 -39 0 -6 -3 -9 -6 -6 -9 10 -52 -37
-56 -61 -2 -16 -11 -25 -26 -28 -26 -3 -54 -27 -45 -37 4 -3 -1 -6 -10 -6 -20
0 -22 -11 -5 -28 9 -9 9 -12 0 -12 -7 0 -12 5 -12 10 0 6 -4 10 -9 10 -5 0 -8
-11 -8 -25 0 -13 3 -22 8 -19 5 3 9 0 9 -6 0 -7 -6 -10 -12 -7 -7 2 -12 12
-12 21 1 9 -3 15 -10 13 -6 -3 -10 -11 -9 -18 2 -8 -5 -3 -15 10 -9 14 -34 43
-56 65 -21 23 -33 33 -26 24 7 -11 8 -18 2 -18 -5 0 -13 7 -16 15 -4 11 34 56
119 141 69 69 125 128 125 132 0 4 -52 59 -116 122 -100 100 -155 163 -127
148 4 -3 31 19 58 48 28 29 54 53 59 54 5 0 7 -3 3 -6z m108 -4 c13 -6 15 -9
5 -9 -8 0 -22 4 -30 9 -18 12 -2 12 25 0z m-513 -60 l51 -51 -26 -27 c-22 -22
-24 -31 -14 -41 10 -10 8 -11 -6 -5 -19 7 -57 -24 -57 -47 0 -7 -3 -9 -7 -6
-6 7 -53 -38 -53 -51 0 -4 9 -8 20 -9 11 -1 18 2 16 6 -3 4 1 17 10 27 14 18
14 17 3 -6 -7 -14 -13 -27 -13 -30 -2 -8 -30 -7 -42 2 -7 5 -23 -5 -43 -27
l-31 -36 32 -35 c18 -19 39 -32 46 -29 7 3 10 0 7 -6 -8 -11 12 -39 28 -39 6
0 2 7 -9 16 -18 14 -18 15 4 4 12 -6 20 -15 17 -20 -7 -11 38 -60 55 -60 6 0
8 -5 4 -12 -5 -7 -2 -9 9 -5 10 4 14 2 11 -7 -3 -7 5 -21 16 -31 16 -14 21
-16 18 -5 -5 24 25 17 38 -8 6 -13 14 -23 18 -22 4 1 12 -1 19 -3 6 -3 1 -4
-12 -4 -14 1 -26 10 -32 24 -5 13 -13 23 -19 23 -6 0 -8 -5 -5 -10 4 -6 -20
-37 -52 -71 l-58 -60 -179 180 -179 180 174 175 c96 96 178 175 182 175 4 1
31 -22 59 -49z m598 40 c-8 -5 -18 -6 -22 -4 -4 3 -8 -4 -8 -15 0 -11 -4 -23
-10 -26 -5 -3 -8 1 -5 9 3 9 7 22 9 29 2 7 14 13 27 14 18 2 20 0 9 -7z m-362
-35 c-3 -3 -9 2 -12 12 -6 14 -5 15 5 6 7 -7 10 -15 7 -18z m47 15 c3 -5 2
-10 -4 -10 -5 0 -13 5 -16 10 -3 6 -2 10 4 10 5 0 13 -4 16 -10z m238 3 c-16
-6 -17 -24 -2 -20 7 1 15 -10 20 -26 4 -16 4 -25 -2 -21 -5 3 -9 14 -9 25 0
11 -4 18 -9 14 -12 -7 -24 12 -16 25 3 6 12 10 18 9 9 0 9 -2 0 -6z m80 -30
c-9 -7 -22 -13 -27 -12 -6 0 -5 3 2 6 6 2 10 9 7 14 -4 5 1 6 10 3 11 -5 14
-2 9 12 -5 16 -4 16 5 4 8 -11 7 -18 -6 -27z m46 7 c-1 -3 3 -16 10 -30 11
-23 11 -24 -3 -6 -9 10 -13 22 -11 27 3 4 0 10 -5 12 -7 4 -6 5 1 4 6 -2 9 -5
8 -7z m-362 -16 c-3 -3 -12 -4 -19 -1 -8 3 -5 6 6 6 11 1 17 -2 13 -5z m213
-4 c0 -5 -2 -10 -4 -10 -3 0 -8 5 -11 10 -3 6 -1 10 4 10 6 0 11 -4 11 -10z
m134 -6 c3 -8 2 -12 -4 -9 -6 3 -10 10 -10 16 0 14 7 11 14 -7z m-19 -32 c2
-22 -30 -50 -43 -38 -3 3 0 6 7 6 7 0 9 4 6 10 -3 5 0 7 7 5 9 -4 14 2 14 14
0 27 -36 23 -37 -4 0 -11 -3 -14 -6 -7 -8 22 4 39 28 38 16 -1 23 -8 24 -24z
m82 -2 c0 -16 -4 -27 -9 -24 -10 6 -11 38 -1 47 9 10 10 10 10 -23z m20 -12
c-3 -7 -5 -2 -5 12 0 14 2 19 5 13 2 -7 2 -19 0 -25z m-67 12 c0 -5 -4 -10
-10 -10 -5 0 -10 5 -10 10 0 6 5 10 10 10 6 0 10 -4 10 -10z m-590 -37 c0 -21
32 -57 54 -61 18 -3 19 -2 5 15 -13 17 -13 17 4 4 17 -13 17 -16 3 -26 -9 -7
-15 -14 -13 -17 1 -2 -13 12 -30 31 -18 20 -33 44 -33 54 0 10 -5 15 -11 12
-6 -4 -8 -14 -4 -24 5 -12 4 -13 -6 -4 -10 10 -9 15 1 27 14 18 30 12 30 -11z
m619 -13 c0 -10 -3 -8 -9 5 -12 27 -12 43 0 25 5 -8 9 -22 9 -30z m-29 10 c8
-15 6 -21 -10 -30 -13 -7 -20 -7 -20 0 0 5 7 10 15 10 9 0 12 6 8 16 -5 13 -7
13 -14 2 -5 -7 -9 -8 -9 -2 0 10 9 24 16 24 2 0 8 -9 14 -20z m90 0 c0 -5 -4
-10 -10 -10 -5 0 -10 5 -10 10 0 6 5 10 10 10 6 0 10 -4 10 -10z m36 -1 c3 -6
1 -16 -6 -22 -10 -9 -12 -8 -7 5 3 9 1 19 -6 22 -9 3 -9 5 0 5 6 1 15 -4 19
-10z m-674 -13 c7 4 8 2 4 -5 -9 -13 -26 -5 -25 12 0 9 2 8 6 -1 2 -6 10 -9
15 -6z m618 -21 c0 -5 -5 -3 -10 5 -5 8 -10 20 -10 25 0 6 5 3 10 -5 5 -8 10
-19 10 -25z m21 -13 c-8 -14 -17 -19 -32 -15 -13 4 -20 2 -16 -3 3 -6 1 -16
-4 -24 -7 -11 -8 -8 -5 10 2 18 9 25 25 24 12 0 23 7 27 18 3 11 8 17 11 15 2
-3 0 -14 -6 -25z m-691 8 c0 -5 -4 -10 -10 -10 -5 0 -10 5 -10 10 0 6 5 10 10
10 6 0 10 -4 10 -10z m647 4 c-2 -3 -17 -7 -33 -10 -17 -2 -24 -1 -17 4 13 8
58 14 50 6z m93 -4 c0 -5 -5 -10 -11 -10 -5 0 -7 5 -4 10 3 6 8 10 11 10 2 0
4 -4 4 -10z m-776 -22 c-3 -5 -13 -6 -23 -3 -12 3 -17 -1 -18 -15 -1 -11 3
-19 9 -17 6 1 13 -5 15 -13 4 -12 3 -12 -5 -2 -5 8 -13 14 -18 15 -9 2 -13 26
-7 38 1 4 14 7 28 7 13 0 22 -5 19 -10z m66 -20 c0 -19 -16 -5 -17 14 -2 18 0
20 7 8 5 -8 10 -18 10 -22z m671 1 c-5 -13 -10 -19 -10 -12 -1 15 10 45 15 40
3 -2 0 -15 -5 -28z m79 -13 c0 -5 -7 -1 -15 10 -8 10 -14 24 -14 29 0 6 6 1
14 -9 8 -11 15 -24 15 -30z m-795 14 c-27 -12 -43 -12 -25 0 8 5 22 9 30 9 10
0 8 -3 -5 -9z m207 -61 l60 -61 -73 -74 c-41 -41 -79 -72 -86 -70 -6 3 -14 1
-17 -5 -2 -5 -3 -4 -2 3 2 7 10 12 20 10 9 -2 16 1 16 6 0 14 -28 23 -35 12
-10 -16 -25 -11 -25 8 0 13 2 14 9 3 5 -8 11 -9 15 -3 6 11 -42 65 -84 94 -14
10 -19 18 -11 18 8 0 11 6 7 16 -4 11 -2 15 8 11 15 -6 109 87 99 97 -3 3 4 3
17 1 12 -2 49 -32 82 -66z m554 60 c8 -14 -11 -33 -25 -25 -11 7 -4 36 9 36 5
0 12 -5 16 -11z m-76 -9 c0 -5 -5 -10 -11 -10 -5 0 -7 5 -4 10 3 6 8 10 11 10
2 0 4 -4 4 -10z m-663 -31 c-3 -10 1 -20 9 -22 8 -3 7 -4 -3 -3 -13 1 -17 9
-15 26 3 24 2 24 -13 6 -8 -11 -17 -17 -20 -14 -9 9 26 39 37 32 5 -3 8 -15 5
-25z m49 19 c5 -7 3 -8 -6 -3 -10 6 -12 4 -7 -8 3 -10 2 -17 -3 -17 -11 0 -13
23 -3 33 9 9 11 9 19 -5z m-141 -18 c3 -5 1 -10 -4 -10 -6 0 -11 5 -11 10 0 6
2 10 4 10 3 0 8 -4 11 -10z m801 -3 c4 -4 15 -7 25 -7 28 0 31 -17 7 -40 -21
-20 -23 -20 -35 -4 -7 10 -13 23 -12 28 0 6 3 5 6 -2 2 -6 9 -10 14 -7 5 4 6
-2 2 -12 -6 -16 -4 -16 16 2 16 14 19 21 9 23 -7 2 -20 6 -28 9 -8 3 -21 7
-28 9 -24 4 -27 15 -4 11 12 -2 25 -6 28 -10z m93 -2 c3 -3 -7 -4 -23 -1 -16
3 -31 8 -35 11 -3 3 7 4 23 1 16 -3 31 -8 35 -11z m-859 -15 c0 -5 -4 -10 -10
-10 -5 0 -10 5 -10 10 0 6 5 10 10 10 6 0 10 -4 10 -10z m886 -5 c-11 -8 -22
-12 -25 -9 -6 6 19 24 34 24 6 -1 1 -7 -9 -15z m-56 -32 c-11 -17 -11 -17 -6
0 3 10 6 24 7 30 0 9 2 9 5 0 3 -7 0 -20 -6 -30z m-950 12 c0 -8 -2 -15 -4
-15 -2 0 -6 7 -10 15 -3 8 -1 15 4 15 6 0 10 -7 10 -15z m75 5 c-27 -12 -43
-12 -25 0 8 5 22 9 30 9 10 0 8 -3 -5 -9z m82 4 c-3 -3 -12 -4 -19 -1 -8 3 -5
6 6 6 11 1 17 -2 13 -5z m-117 -39 c0 -5 -5 -3 -10 5 -5 8 -10 20 -10 25 0 6
5 3 10 -5 5 -8 10 -19 10 -25z m84 29 c9 -3 16 -11 16 -16 0 -6 -6 -5 -15 2
-12 10 -18 10 -30 0 -9 -8 -15 -8 -15 -2 0 6 6 13 13 15 6 3 13 6 14 6 1 1 8
-2 17 -5z m-154 -19 c-12 -14 -9 -15 21 -10 18 3 30 3 26 -1 -4 -4 -22 -8 -41
-9 -32 -2 -34 -1 -23 16 7 11 16 19 21 19 4 0 3 -7 -4 -15z m995 -19 c-10 -14
-21 -24 -25 -21 -5 3 -11 -4 -13 -15 -4 -17 -4 -17 -3 2 0 13 6 22 11 21 6 -1
16 9 23 23 8 14 16 24 19 21 2 -3 -3 -17 -12 -31z m-891 9 c3 -8 1 -15 -4 -15
-6 0 -10 7 -10 15 0 8 2 15 4 15 2 0 6 -7 10 -15z m51 -5 c3 -5 2 -10 -4 -10
-5 0 -13 5 -16 10 -3 6 -2 10 4 10 5 0 13 -4 16 -10z m805 6 c0 -3 -4 -8 -10
-11 -5 -3 -10 -1 -10 4 0 6 5 11 10 11 6 0 10 -2 10 -4z m105 -14 c-3 -3 -11
0 -18 7 -9 10 -8 11 6 5 10 -3 15 -9 12 -12z m-973 -25 c5 -10 7 -21 4 -25 -3
-3 -6 0 -6 7 0 7 -4 9 -10 6 -5 -3 -7 0 -4 9 4 12 0 14 -21 10 -16 -3 -24 -1
-21 5 10 16 47 8 58 -12z m58 6 c0 -3 -6 -3 -14 0 -10 4 -14 0 -13 -14 1 -11
9 -19 20 -19 10 0 16 4 13 8 -2 4 0 14 5 22 7 11 8 8 6 -10 -3 -18 -10 -25
-27 -25 -22 0 -36 27 -24 46 5 8 34 1 34 -8z m-127 -13 c3 -11 1 -18 -4 -14
-5 3 -9 12 -9 20 0 20 7 17 13 -6z m164 -12 c-3 -8 -6 -5 -6 6 -1 11 2 17 5
13 3 -3 4 -12 1 -19z m822 19 c-2 -1 -13 -9 -24 -17 -19 -14 -19 -14 -6 3 7 9
18 17 24 17 6 0 8 -1 6 -3z m-908 -42 c12 -3 24 -7 28 -10 3 -4 -7 -4 -23 -1
-16 3 -34 11 -40 17 -8 9 -8 10 1 5 7 -4 23 -9 34 -11z m74 -5 c-3 -5 -12 -10
-18 -10 -7 0 -6 4 3 10 19 12 23 12 15 0z m74 -5 c3 -3 -7 -4 -23 -1 -16 3
-31 8 -35 11 -3 3 7 4 23 1 16 -3 31 -8 35 -11z m731 5 c0 -5 -4 -10 -10 -10
-5 0 -10 5 -10 10 0 6 5 10 10 10 6 0 10 -4 10 -10z m-777 -29 c-4 -14 14 -15
20 -1 3 6 4 5 3 -2 -2 -7 -9 -13 -17 -13 -8 0 -13 6 -11 13 1 6 -3 12 -9 12
-7 0 -9 -10 -5 -27 5 -23 4 -25 -5 -10 -13 22 -4 51 14 44 6 -2 11 -10 10 -16z
m667 -14 c0 -6 -7 -2 -16 9 -14 17 -15 17 -10 1 3 -11 2 -16 -4 -12 -6 3 -10
1 -10 -6 0 -7 -3 -10 -6 -7 -3 4 0 16 6 28 9 17 14 19 26 9 8 -6 14 -16 14
-22z m-746 12 c9 14 26 14 26 0 0 -5 -5 -7 -10 -4 -6 3 -13 -1 -16 -10 -6 -13
-8 -14 -15 -3 -5 7 -9 18 -9 23 0 6 4 4 9 -4 6 -9 11 -10 15 -2z m867 -6 c13
-16 12 -17 -3 -4 -17 13 -22 21 -14 21 2 0 10 -8 17 -17z m-79 -10 c-8 -3 -10
-9 -3 -17 6 -7 4 -18 -5 -30 -8 -11 -14 -15 -14 -9 0 7 5 15 10 18 6 4 8 11 5
16 -9 13 -26 11 -22 -2 1 -6 -5 -14 -13 -16 -13 -4 -13 -3 0 6 8 6 11 11 5 11
-5 0 -1 7 9 15 11 8 25 15 30 14 6 0 5 -3 -2 -6z m-740 -26 c6 -11 5 -17 -2
-17 -5 0 -10 7 -10 15 0 9 -6 12 -15 9 -8 -4 -15 -2 -15 4 0 16 31 7 42 -11z
m82 -18 c-3 -5 -15 -14 -27 -19 -19 -9 -20 -9 -7 2 8 7 16 21 18 31 3 15 0 16
-17 5 -11 -6 -19 -16 -18 -21 1 -5 -5 -12 -13 -14 -13 -4 -13 -3 0 6 8 6 11
11 5 11 -5 0 1 9 15 20 23 18 26 18 37 3 7 -9 10 -20 7 -24z m585 12 c12 -8 9
-11 -12 -16 -15 -4 -24 -11 -21 -17 3 -5 -3 -12 -15 -15 -12 -3 -21 -9 -21
-14 0 -5 -5 -9 -11 -9 -8 0 -7 5 2 16 11 13 9 15 -17 9 -23 -4 -25 -3 -9 4 11
5 31 7 44 4 17 -4 22 -2 16 6 -4 8 1 14 15 18 16 4 18 8 8 14 -7 5 -8 9 -3 9
6 0 17 -4 24 -9z m-531 -26 c-3 -3 -9 2 -12 12 -6 14 -5 15 5 6 7 -7 10 -15 7
-18z m482 21 c0 -3 -4 -8 -10 -11 -5 -3 -10 -1 -10 4 0 6 5 11 10 11 6 0 10
-2 10 -4z m-502 -42 c-1 -10 -7 -16 -12 -15 -5 2 -13 -3 -18 -11 -8 -10 -9
-10 -5 2 2 8 10 14 16 13 6 -2 11 7 11 19 0 20 -1 20 -18 5 -10 -10 -22 -17
-26 -17 -5 0 2 9 15 19 26 21 43 14 37 -15z m648 24 c4 -6 3 -8 -4 -4 -6 3
-14 -3 -17 -15 -4 -11 -9 -18 -12 -16 -5 5 14 47 22 47 2 0 7 -5 11 -12z m-56
-14 c0 -2 -7 -4 -15 -4 -8 0 -15 4 -15 10 0 5 7 7 15 4 8 -4 15 -8 15 -10z
m-515 -4 c3 -5 1 -10 -4 -10 -6 0 -11 5 -11 10 0 6 2 10 4 10 3 0 8 -4 11 -10z
m463 -10 c-7 -10 -14 -17 -17 -15 -4 4 18 35 25 35 2 0 -1 -9 -8 -20z m-511
-21 c-20 -11 -23 -30 -4 -26 18 3 15 -46 -3 -50 -9 -3 -11 -1 -5 4 6 4 11 17
13 28 2 19 2 19 -11 2 -13 -16 -14 -15 -14 10 0 26 26 58 37 46 3 -2 -3 -9
-13 -14z m573 11 c0 -5 -2 -10 -4 -10 -3 0 -8 5 -11 10 -3 6 -1 10 4 10 6 0
11 -4 11 -10z m-540 -15 c0 -8 -4 -15 -10 -15 -5 0 -7 7 -4 15 4 8 8 15 10 15
2 0 4 -7 4 -15z m43 -20 c-10 -7 -22 -11 -27 -7 -5 3 -7 -2 -3 -12 4 -10 3
-15 -3 -11 -6 3 -10 1 -10 -6 0 -7 -3 -10 -6 -7 -9 10 16 49 27 43 5 -4 12 1
15 9 3 9 10 13 16 10 5 -3 1 -12 -9 -19z m352 4 c0 -8 -5 -13 -11 -12 -7 1
-15 -10 -19 -24 -5 -21 -8 -24 -16 -12 -5 7 -9 19 -9 24 0 6 4 4 9 -3 6 -10
10 -8 14 8 3 12 10 19 16 15 6 -3 11 -2 11 4 0 5 -5 12 -10 14 -6 3 -5 4 2 3
7 -2 13 -9 13 -17z m43 7 c-7 -8 -15 -12 -17 -11 -5 6 10 25 20 25 5 0 4 -6
-3 -14z m34 -45 c-6 -14 -7 -14 -10 2 -2 9 -8 17 -13 17 -5 0 -9 5 -9 10 0 6
7 6 19 -2 12 -7 17 -18 13 -27z m-411 0 c-7 -11 -15 -20 -19 -20 -20 3 -33 -2
-27 -11 3 -5 1 -10 -4 -10 -6 0 -11 4 -11 10 0 13 36 31 45 22 5 -4 5 1 2 11
-4 11 -3 16 3 12 6 -3 10 -1 10 6 0 7 3 10 6 7 3 -4 1 -16 -5 -27z m358 16
c-2 -1 -13 -9 -24 -17 -19 -14 -19 -14 -6 3 7 9 18 17 24 17 6 0 8 -1 6 -3z
m-488 -24 c13 -16 12 -17 -3 -4 -10 7 -18 15 -18 17 0 8 8 3 21 -13z m391 10
c-6 -2 -10 -9 -7 -14 4 -5 0 -6 -7 -4 -9 4 -14 -2 -14 -15 0 -26 28 -22 38 5
6 17 7 17 5 -4 -2 -29 -32 -36 -61 -14 -18 13 -18 15 -2 9 13 -5 17 -2 13 9
-6 14 17 35 38 34 6 0 4 -3 -3 -6z m-251 -34 c-5 -13 -10 -19 -10 -12 -1 15
10 45 15 40 3 -2 0 -15 -5 -28z m39 1 c0 -5 -2 -10 -4 -10 -3 0 -8 5 -11 10
-3 6 -1 10 4 10 6 0 11 -4 11 -10z m350 6 c0 -3 -4 -8 -10 -11 -5 -3 -10 -1
-10 4 0 6 5 11 10 11 6 0 10 -2 10 -4z m-429 -33 c-12 -20 -14 -14 -5 12 4 9
9 14 11 11 3 -2 0 -13 -6 -23z m93 5 c-5 -7 -9 -19 -10 -26 -2 -8 -6 -17 -10
-20 -4 -4 -4 1 -1 11 4 11 1 20 -8 23 -8 4 -15 11 -15 16 0 6 6 5 15 -2 12
-10 16 -9 21 4 4 9 9 15 11 12 3 -3 1 -11 -3 -18z m-149 2 c3 -6 -1 -7 -9 -4
-18 7 -21 14 -7 14 6 0 13 -4 16 -10z m59 -34 c18 7 30 -12 15 -22 -8 -5 -9
-3 -4 6 6 10 4 12 -8 7 -17 -6 -47 16 -47 36 0 6 7 2 15 -10 9 -12 22 -20 29
-17z m41 14 c13 -6 15 -9 5 -9 -8 0 -22 4 -30 9 -18 12 -2 12 25 0z m82 4 c-3
-3 -12 -4 -19 -1 -8 3 -5 6 6 6 11 1 17 -2 13 -5z m123 -4 c0 -5 -8 -10 -17
-10 -15 0 -16 2 -3 10 19 12 20 12 20 0z m44 -6 c-17 -7 7 -53 23 -47 7 3 13
3 13 0 0 -3 -7 -8 -15 -11 -11 -4 -19 3 -25 19 -5 14 -15 25 -21 25 -8 0 -7
-6 2 -17 13 -17 12 -17 -4 -4 -18 14 -18 16 -1 28 10 7 23 13 28 12 7 0 7 -2
0 -5z m-149 -14 c3 -5 1 -12 -5 -15 -8 -5 -8 -11 0 -20 12 -15 10 -52 -2 -44
-4 2 -14 -5 -22 -16 l-15 -20 -15 20 c-8 11 -16 24 -16 30 0 5 7 -1 16 -14 15
-21 18 -22 26 -7 5 9 13 14 19 11 5 -4 9 4 9 16 0 21 -1 21 -18 6 -10 -10 -22
-17 -26 -17 -5 0 2 9 15 20 13 10 20 19 15 20 -5 0 -3 6 4 14 9 12 8 15 -10
13 -14 -1 -20 -7 -18 -22 2 -15 -3 -20 -20 -21 -13 -1 -26 5 -29 12 -3 8 -10
11 -16 7 -6 -3 -7 -1 -3 5 10 16 26 15 26 -1 0 -7 9 -13 20 -14 11 -1 18 3 14
8 -3 6 -4 15 -1 22 5 15 44 20 52 7z m179 -6 c3 -8 2 -12 -4 -9 -6 3 -10 10
-10 16 0 14 7 11 14 -7z m-149 -14 c-3 -5 -11 -10 -16 -10 -6 0 -7 5 -4 10 3
6 11 10 16 10 6 0 7 -4 4 -10z m65 -5 c0 -8 -2 -15 -4 -15 -2 0 -6 7 -10 15
-3 8 -1 15 4 15 6 0 10 -7 10 -15z m-35 -14 c-3 -6 -10 -9 -15 -6 -8 5 -25
-42 -21 -58 1 -5 -3 -6 -8 -3 -5 4 -11 1 -13 -6 -2 -6 -15 -13 -29 -15 -18 -2
-20 -1 -9 6 8 5 17 8 21 5 4 -2 17 16 29 41 12 25 26 43 31 39 5 -3 9 0 9 7 0
7 3 10 6 6 3 -3 3 -11 -1 -16z m-160 -13 c5 4 5 1 1 -6 -6 -10 -11 -10 -22 -1
-8 6 -14 17 -14 23 0 6 7 3 14 -6 7 -10 17 -14 21 -10z m237 -17 c-6 -14 -7
-14 -10 2 -2 9 -8 17 -13 17 -5 0 -9 5 -9 10 0 6 7 6 19 -2 12 -7 17 -18 13
-27z m-53 16 c-2 -1 -13 -9 -24 -17 -19 -14 -19 -14 -6 3 7 9 18 17 24 17 6 0
8 -1 6 -3z m41 -41 c0 -3 -4 -8 -10 -11 -5 -3 -10 -1 -10 4 0 6 5 11 10 11 6
0 10 -2 10 -4z m-107 -71 c4 -8 3 -16 -1 -19 -4 -3 -9 4 -9 15 -2 23 3 25 10
4z"/>
<path d="M1023 1282 c-1 -11 5 -18 17 -18 12 0 18 7 17 18 -1 10 -8 18 -17 18
-9 0 -16 -8 -17 -18z"/>
<path d="M1241 677 c-8 -10 -7 -14 4 -14 8 0 15 6 15 14 0 7 -2 13 -4 13 -2 0
-9 -6 -15 -13z"/>
<path d="M1505 1030 c-3 -5 -1 -10 4 -10 6 0 11 5 11 10 0 6 -2 10 -4 10 -3 0
-8 -4 -11 -10z"/>
<path d="M1145 1430 c-3 -5 3 -10 15 -10 12 0 18 5 15 10 -3 6 -10 10 -15 10
-5 0 -12 -4 -15 -10z"/>
<path d="M1027 1413 c-14 -13 -6 -29 13 -29 11 0 20 3 20 7 0 11 -27 29 -33
22z"/>
</g>
</svg>
